<svg class="svg-icon" style="width: 1em; height: 1em;vertical-align: middle;fill: currentColor;overflow: hidden;" viewBox="0 0 1024 1024" version="1.1" xmlns="http://www.w3.org/2000/svg"><path d="M512 1024C229.248 1024 0 794.752 0 512S229.248 0 512 0s512 229.248 512 512-229.248 512-512 512z m0-128c82.88 0 159.168-26.88 221.952-71.552l-534.4-534.4C154.88 352.832 128 429.12 128 512c0 212.032 171.968 384 384 384z m0-768c-82.88 0-159.168 26.88-221.952 71.552l534.4 534.4C869.12 671.168 896 594.944 896 512c0-212.032-171.968-384-384-384z" fill="" /></svg>