<svg class="svg-icon" style="width: 1em; height: 1em;vertical-align: middle;fill: currentColor;overflow: hidden;" viewBox="0 0 1024 1024" version="1.1" xmlns="http://www.w3.org/2000/svg"><path d="M892 337.11l-206.24-205.3a67.58 67.58 0 0 0-48-19.81H180a68.07 68.07 0 0 0-68 68v664a68.07 68.07 0 0 0 68 68h664a68.07 68.07 0 0 0 68-68V385.3a68.45 68.45 0 0 0-20-48.19zM686 840H338V608h348z m154 0h-90V584a40 40 0 0 0-40-40H314a40 40 0 0 0-40 40v256h-90V184h452.14L840 387z"  /><path d="M438 259a118 118 0 1 0 118 118 118.13 118.13 0 0 0-118-118z m0 180a62 62 0 1 1 62-62 62.07 62.07 0 0 1-62 62z"  /></svg>